# xmcd CD database file
#
# Track frame offsets:
#	150
#	28836
#	53591
#	76467
#	109471
#	131584
#	152693
#	181958
#	202510
#
# Disc length: 2964 seconds
#
# Revision: 0
# Processed by: cddbd v1.5.2PL0 Copyright (c) Steve Scherf et al.
# Submitted via: jetAudio 7
#
DISCID=6d0b9209
DTITLE=郭慧詩 and 王蕙 - Chao Xian II
DYEAR=2001
DGENRE=Crossover
TTITLE0=Yesterday today
TTITLE1=Seeing off
TTITLE2=Do know or don't konw
TTITLE3=Love at parting
TTITLE4=Home
TTITLE5=The days we've been through
TTITLE6=The ideal city
TTITLE7=The melting snows on broken bridge
TTITLE8=Parted lovers
EXTD=YEAR: 2001
EXTT0=
EXTT1=
EXTT2=
EXTT3=
EXTT4=
EXTT5=
EXTT6=
EXTT7=
EXTT8=
PLAYORDER=
